<svg xmlns="http://www.w3.org/2000/svg" xmlns:xlink="http://www.w3.org/1999/xlink" width="1500" zoomAndPan="magnify" viewBox="0 0 1125 374.999991" height="500" preserveAspectRatio="xMidYMid meet" version="1.0"><defs><clipPath id="b8b0d3849f"><path d="M 407 174 L 448 174 L 448 216.367188 L 407 216.367188 Z M 407 174 " clip-rule="nonzero"/></clipPath><clipPath id="a32995f712"><path d="M 455 158.617188 L 495 158.617188 L 495 216.367188 L 455 216.367188 Z M 455 158.617188 " clip-rule="nonzero"/></clipPath><clipPath id="ebc2abc30e"><path d="M 500 160 L 543 160 L 543 216.367188 L 500 216.367188 Z M 500 160 " clip-rule="nonzero"/></clipPath><clipPath id="c288ead242"><path d="M 631 174 L 676 174 L 676 216.367188 L 631 216.367188 Z M 631 174 " clip-rule="nonzero"/></clipPath><clipPath id="e62306bc16"><path d="M 726 174 L 766 174 L 766 216.367188 L 726 216.367188 Z M 726 174 " clip-rule="nonzero"/></clipPath><clipPath id="aa69db31bb"><path d="M 770 174 L 810.796875 174 L 810.796875 216.367188 L 770 216.367188 Z M 770 174 " clip-rule="nonzero"/></clipPath><clipPath id="8af8188372"><path d="M 314.296875 161 L 391 161 L 391 216 L 314.296875 216 Z M 314.296875 161 " clip-rule="nonzero"/></clipPath><clipPath id="12ee62838b"><path d="M 329.257812 215.3125 L 314.296875 161.570312 L 327.863281 161.570312 L 336.964844 195.753906 L 337.269531 195.753906 L 346.511719 161.570312 L 359.769531 161.570312 L 368.867188 195.753906 L 369.175781 195.753906 L 378.277344 161.570312 L 390.5 161.570312 L 375.597656 215.339844 L 361.164062 215.339844 L 352.789062 184.0625 L 352.316406 184.0625 L 343.941406 215.339844 L 329.285156 215.339844 Z M 329.257812 215.3125 " clip-rule="nonzero"/></clipPath><linearGradient x1="-1.551801" gradientTransform="matrix(2.791364, 0, 0, 2.790205, 314.297456, 158.893626)" y1="17.355956" x2="27.641899" gradientUnits="userSpaceOnUse" y2="1.593224" id="e4500b3934"><stop stop-opacity="1" stop-color="rgb(19.599915%, 58.799744%, 100%)" offset="0"/><stop stop-opacity="1" stop-color="rgb(19.656372%, 58.731079%, 100%)" offset="0.015625"/><stop stop-opacity="1" stop-color="rgb(19.839478%, 58.508301%, 100%)" offset="0.03125"/><stop stop-opacity="1" stop-color="rgb(20.094299%, 58.203125%, 100%)" offset="0.046875"/><stop stop-opacity="1" stop-color="rgb(20.349121%, 57.896423%, 100%)" offset="0.0625"/><stop stop-opacity="1" stop-color="rgb(20.602417%, 57.591248%, 100%)" offset="0.078125"/><stop stop-opacity="1" stop-color="rgb(20.857239%, 57.284546%, 100%)" offset="0.09375"/><stop stop-opacity="1" stop-color="rgb(21.112061%, 56.977844%, 100%)" offset="0.109375"/><stop stop-opacity="1" stop-color="rgb(21.365356%, 56.672668%, 100%)" offset="0.125"/><stop stop-opacity="1" stop-color="rgb(21.620178%, 56.365967%, 100%)" offset="0.140625"/><stop stop-opacity="1" stop-color="rgb(21.875%, 56.060791%, 100%)" offset="0.15625"/><stop stop-opacity="1" stop-color="rgb(22.129822%, 55.754089%, 100%)" offset="0.171875"/><stop stop-opacity="1" stop-color="rgb(22.383118%, 55.448914%, 100%)" offset="0.1875"/><stop stop-opacity="1" stop-color="rgb(22.637939%, 55.142212%, 100%)" offset="0.203125"/><stop stop-opacity="1" stop-color="rgb(22.892761%, 54.83551%, 100%)" offset="0.21875"/><stop stop-opacity="1" stop-color="rgb(23.146057%, 54.530334%, 100%)" offset="0.234375"/><stop stop-opacity="1" stop-color="rgb(23.400879%, 54.223633%, 100%)" offset="0.25"/><stop stop-opacity="1" stop-color="rgb(23.655701%, 53.918457%, 100%)" offset="0.265625"/><stop stop-opacity="1" stop-color="rgb(23.910522%, 53.611755%, 100%)" offset="0.27595"/><stop stop-opacity="1" stop-color="rgb(24.03717%, 53.459167%, 100%)" offset="0.28125"/><stop stop-opacity="1" stop-color="rgb(24.163818%, 53.30658%, 100%)" offset="0.296875"/><stop stop-opacity="1" stop-color="rgb(24.41864%, 52.999878%, 100%)" offset="0.3125"/><stop stop-opacity="1" stop-color="rgb(24.673462%, 52.693176%, 100%)" offset="0.328125"/><stop stop-opacity="1" stop-color="rgb(24.926758%, 52.388%, 100%)" offset="0.34375"/><stop stop-opacity="1" stop-color="rgb(25.18158%, 52.081299%, 100%)" offset="0.359375"/><stop stop-opacity="1" stop-color="rgb(25.436401%, 51.776123%, 100%)" offset="0.375"/><stop stop-opacity="1" stop-color="rgb(25.689697%, 51.469421%, 100%)" offset="0.390625"/><stop stop-opacity="1" stop-color="rgb(25.944519%, 51.164246%, 100%)" offset="0.40625"/><stop stop-opacity="1" stop-color="rgb(26.199341%, 50.857544%, 100%)" offset="0.421875"/><stop stop-opacity="1" stop-color="rgb(26.454163%, 50.550842%, 100%)" offset="0.4375"/><stop stop-opacity="1" stop-color="rgb(26.707458%, 50.245667%, 100%)" offset="0.453125"/><stop stop-opacity="1" stop-color="rgb(26.96228%, 49.938965%, 100%)" offset="0.46875"/><stop stop-opacity="1" stop-color="rgb(27.217102%, 49.633789%, 100%)" offset="0.484375"/><stop stop-opacity="1" stop-color="rgb(27.470398%, 49.327087%, 100%)" offset="0.5"/><stop stop-opacity="1" stop-color="rgb(27.72522%, 49.021912%, 100%)" offset="0.515625"/><stop stop-opacity="1" stop-color="rgb(27.980042%, 48.71521%, 100%)" offset="0.53125"/><stop stop-opacity="1" stop-color="rgb(28.234863%, 48.408508%, 100%)" offset="0.546875"/><stop stop-opacity="1" stop-color="rgb(28.488159%, 48.103333%, 100%)" offset="0.5625"/><stop stop-opacity="1" stop-color="rgb(28.742981%, 47.796631%, 100%)" offset="0.578125"/><stop stop-opacity="1" stop-color="rgb(28.997803%, 47.491455%, 100%)" offset="0.59375"/><stop stop-opacity="1" stop-color="rgb(29.251099%, 47.184753%, 100%)" offset="0.609375"/><stop stop-opacity="1" stop-color="rgb(29.50592%, 46.879578%, 100%)" offset="0.625"/><stop stop-opacity="1" stop-color="rgb(29.760742%, 46.572876%, 100%)" offset="0.640625"/><stop stop-opacity="1" stop-color="rgb(30.015564%, 46.266174%, 100%)" offset="0.65625"/><stop stop-opacity="1" stop-color="rgb(30.26886%, 45.960999%, 100%)" offset="0.671875"/><stop stop-opacity="1" stop-color="rgb(30.523682%, 45.654297%, 100%)" offset="0.6875"/><stop stop-opacity="1" stop-color="rgb(30.778503%, 45.349121%, 100%)" offset="0.703125"/><stop stop-opacity="1" stop-color="rgb(31.031799%, 45.042419%, 100%)" offset="0.71875"/><stop stop-opacity="1" stop-color="rgb(31.286621%, 44.737244%, 100%)" offset="0.72405"/><stop stop-opacity="1" stop-color="rgb(31.414795%, 44.584656%, 100%)" offset="0.734375"/><stop stop-opacity="1" stop-color="rgb(31.541443%, 44.430542%, 100%)" offset="0.75"/><stop stop-opacity="1" stop-color="rgb(31.794739%, 44.12384%, 100%)" offset="0.765625"/><stop stop-opacity="1" stop-color="rgb(32.049561%, 43.818665%, 100%)" offset="0.78125"/><stop stop-opacity="1" stop-color="rgb(32.304382%, 43.511963%, 100%)" offset="0.796875"/><stop stop-opacity="1" stop-color="rgb(32.559204%, 43.206787%, 100%)" offset="0.8125"/><stop stop-opacity="1" stop-color="rgb(32.8125%, 42.900085%, 100%)" offset="0.828125"/><stop stop-opacity="1" stop-color="rgb(33.067322%, 42.59491%, 100%)" offset="0.84375"/><stop stop-opacity="1" stop-color="rgb(33.322144%, 42.288208%, 100%)" offset="0.859375"/><stop stop-opacity="1" stop-color="rgb(33.575439%, 41.983032%, 100%)" offset="0.875"/><stop stop-opacity="1" stop-color="rgb(33.830261%, 41.676331%, 100%)" offset="0.890625"/><stop stop-opacity="1" stop-color="rgb(34.085083%, 41.369629%, 100%)" offset="0.90625"/><stop stop-opacity="1" stop-color="rgb(34.339905%, 41.064453%, 100%)" offset="0.921875"/><stop stop-opacity="1" stop-color="rgb(34.593201%, 40.757751%, 100%)" offset="0.9375"/><stop stop-opacity="1" stop-color="rgb(34.848022%, 40.452576%, 100%)" offset="0.953125"/><stop stop-opacity="1" stop-color="rgb(35.102844%, 40.145874%, 100%)" offset="0.96875"/><stop stop-opacity="1" stop-color="rgb(35.35614%, 39.840698%, 100%)" offset="0.984375"/><stop stop-opacity="1" stop-color="rgb(35.610962%, 39.533997%, 100%)" offset="1"/></linearGradient><clipPath id="22cb9f3e6d"><path d="M 379 161 L 407 161 L 407 216 L 379 216 Z M 379 161 " clip-rule="nonzero"/></clipPath><clipPath id="d30abf7723"><path d="M 406.355469 161.570312 L 394.128906 161.570312 L 379.8125 215.3125 L 392.066406 215.3125 Z M 406.355469 161.570312 " clip-rule="nonzero"/></clipPath><linearGradient x1="20.518081" gradientTransform="matrix(2.791364, 0, 0, 2.790205, 314.297456, 158.893626)" y1="14.757365" x2="35.934154" gradientUnits="userSpaceOnUse" y2="6.426774" id="355304b750"><stop stop-opacity="1" stop-color="rgb(29.594421%, 46.774292%, 100%)" offset="0"/><stop stop-opacity="1" stop-color="rgb(29.728699%, 46.612549%, 100%)" offset="0.03125"/><stop stop-opacity="1" stop-color="rgb(29.997253%, 46.289062%, 100%)" offset="0.0625"/><stop stop-opacity="1" stop-color="rgb(30.265808%, 45.965576%, 100%)" offset="0.09375"/><stop stop-opacity="1" stop-color="rgb(30.534363%, 45.64209%, 100%)" offset="0.125"/><stop stop-opacity="1" stop-color="rgb(30.802917%, 45.318604%, 100%)" offset="0.15625"/><stop stop-opacity="1" stop-color="rgb(31.071472%, 44.995117%, 100%)" offset="0.1875"/><stop stop-opacity="1" stop-color="rgb(31.341553%, 44.673157%, 100%)" offset="0.21875"/><stop stop-opacity="1" stop-color="rgb(31.610107%, 44.34967%, 100%)" offset="0.25"/><stop stop-opacity="1" stop-color="rgb(31.878662%, 44.026184%, 100%)" offset="0.28125"/><stop stop-opacity="1" stop-color="rgb(32.147217%, 43.702698%, 100%)" offset="0.3125"/><stop stop-opacity="1" stop-color="rgb(32.415771%, 43.379211%, 100%)" offset="0.34375"/><stop stop-opacity="1" stop-color="rgb(32.684326%, 43.055725%, 100%)" offset="0.375"/><stop stop-opacity="1" stop-color="rgb(32.952881%, 42.732239%, 100%)" offset="0.40625"/><stop stop-opacity="1" stop-color="rgb(33.221436%, 42.408752%, 100%)" offset="0.4375"/><stop stop-opacity="1" stop-color="rgb(33.48999%, 42.085266%, 100%)" offset="0.46875"/><stop stop-opacity="1" stop-color="rgb(33.760071%, 41.763306%, 100%)" offset="0.477463"/><stop stop-opacity="1" stop-color="rgb(33.894348%, 41.601562%, 100%)" offset="0.5"/><stop stop-opacity="1" stop-color="rgb(34.028625%, 41.439819%, 100%)" offset="0.522537"/><stop stop-opacity="1" stop-color="rgb(34.162903%, 41.278076%, 100%)" offset="0.53125"/><stop stop-opacity="1" stop-color="rgb(34.29718%, 41.116333%, 100%)" offset="0.5625"/><stop stop-opacity="1" stop-color="rgb(34.565735%, 40.792847%, 100%)" offset="0.59375"/><stop stop-opacity="1" stop-color="rgb(34.83429%, 40.46936%, 100%)" offset="0.625"/><stop stop-opacity="1" stop-color="rgb(35.102844%, 40.145874%, 100%)" offset="0.65625"/><stop stop-opacity="1" stop-color="rgb(35.371399%, 39.822388%, 100%)" offset="0.6875"/><stop stop-opacity="1" stop-color="rgb(35.639954%, 39.498901%, 100%)" offset="0.71875"/><stop stop-opacity="1" stop-color="rgb(35.908508%, 39.175415%, 100%)" offset="0.75"/><stop stop-opacity="1" stop-color="rgb(36.178589%, 38.853455%, 100%)" offset="0.78125"/><stop stop-opacity="1" stop-color="rgb(36.447144%, 38.529968%, 100%)" offset="0.8125"/><stop stop-opacity="1" stop-color="rgb(36.715698%, 38.206482%, 100%)" offset="0.84375"/><stop stop-opacity="1" stop-color="rgb(36.984253%, 37.882996%, 100%)" offset="0.875"/><stop stop-opacity="1" stop-color="rgb(37.252808%, 37.559509%, 100%)" offset="0.90625"/><stop stop-opacity="1" stop-color="rgb(37.521362%, 37.236023%, 100%)" offset="0.9375"/><stop stop-opacity="1" stop-color="rgb(37.789917%, 36.912537%, 100%)" offset="0.96875"/><stop stop-opacity="1" stop-color="rgb(38.058472%, 36.58905%, 100%)" offset="1"/></linearGradient></defs><g clip-path="url(#b8b0d3849f)"><path fill="#040435" d="M 427.738281 216.09375 C 423.832031 216.09375 420.339844 215.3125 417.355469 213.777344 C 414.339844 212.242188 411.996094 209.980469 410.292969 207.023438 C 408.589844 204.066406 407.753906 200.496094 407.753906 196.339844 L 407.753906 194.21875 C 407.753906 189.976562 408.617188 186.40625 410.375 183.449219 C 412.132812 180.488281 414.507812 178.257812 417.550781 176.75 C 420.566406 175.246094 424.054688 174.492188 427.988281 174.492188 L 429.46875 174.492188 C 433.238281 174.492188 436.476562 175.214844 439.183594 176.695312 C 441.890625 178.144531 443.984375 180.210938 445.464844 182.863281 C 446.941406 185.511719 447.667969 188.554688 447.667969 191.984375 L 447.667969 196.925781 L 420.84375 196.925781 C 420.84375 199.128906 421.09375 201.082031 421.597656 202.8125 C 422.101562 204.542969 422.910156 205.878906 424.027344 206.855469 C 425.140625 207.832031 426.621094 208.308594 428.464844 208.308594 C 430.082031 208.308594 431.449219 208 432.566406 207.359375 C 433.683594 206.746094 434.578125 205.824219 435.191406 204.652344 C 435.804688 203.480469 436.140625 202.058594 436.140625 200.382812 L 447.585938 200.382812 C 447.585938 203.425781 446.777344 206.105469 445.183594 208.503906 C 443.59375 210.875 441.386719 212.746094 438.570312 214.113281 C 435.75 215.480469 432.457031 216.148438 428.6875 216.148438 L 427.738281 216.148438 Z M 420.84375 190.953125 L 435.5 190.953125 C 435.5 187.96875 434.855469 185.792969 433.542969 184.394531 C 432.234375 183 430.5 182.332031 428.378906 182.332031 C 426.257812 182.332031 424.472656 183.058594 423.078125 184.535156 C 421.679688 185.988281 420.957031 188.136719 420.84375 190.953125 Z M 420.84375 190.953125 " fill-opacity="1" fill-rule="nonzero"/></g><g clip-path="url(#a32995f712)"><path fill="#040435" d="M 477.757812 216.09375 C 471.953125 216.09375 467.515625 213.804688 464.445312 209.199219 L 460.203125 215.3125 L 455.734375 215.3125 L 455.734375 158.894531 L 468.046875 158.894531 L 468.046875 179.820312 C 469.246094 178.257812 470.753906 176.972656 472.597656 175.96875 C 474.4375 174.964844 476.671875 174.492188 479.351562 174.492188 C 482.171875 174.492188 484.765625 175.160156 487.140625 176.5 C 489.511719 177.839844 491.410156 179.933594 492.832031 182.777344 C 494.257812 185.625 494.953125 189.308594 494.953125 193.800781 L 494.953125 195.527344 C 494.953125 200.1875 494.144531 204.039062 492.554688 207.082031 C 490.964844 210.121094 488.871094 212.410156 486.273438 213.886719 C 483.675781 215.367188 480.859375 216.121094 477.757812 216.121094 Z M 475.023438 208.28125 C 476.335938 208.28125 477.480469 207.945312 478.511719 207.246094 C 479.546875 206.550781 480.355469 205.574219 480.941406 204.261719 C 481.527344 202.949219 481.835938 201.332031 481.835938 199.40625 L 481.835938 190.953125 C 481.835938 189.167969 481.554688 187.660156 480.96875 186.40625 C 480.382812 185.148438 479.601562 184.199219 478.625 183.558594 C 477.648438 182.917969 476.476562 182.582031 475.164062 182.582031 C 473.851562 182.582031 472.679688 182.917969 471.589844 183.558594 C 470.503906 184.199219 469.664062 185.175781 468.996094 186.40625 C 468.351562 187.660156 468.019531 189.195312 468.019531 191.035156 L 468.019531 199.492188 C 468.019531 201.417969 468.324219 203.035156 468.96875 204.347656 C 469.582031 205.65625 470.445312 206.632812 471.507812 207.277344 C 472.566406 207.917969 473.738281 208.253906 474.996094 208.253906 Z M 475.023438 208.28125 " fill-opacity="1" fill-rule="nonzero"/></g><g clip-path="url(#ebc2abc30e)"><path fill="#040435" d="M 519.628906 216.09375 C 515.5 216.09375 512.066406 215.421875 509.273438 214.054688 C 506.511719 212.6875 504.417969 210.847656 503.050781 208.503906 C 501.683594 206.160156 500.984375 203.535156 500.984375 200.664062 L 500.984375 199.183594 L 512.121094 199.183594 C 512.121094 202.003906 512.957031 203.957031 514.660156 205.015625 C 516.363281 206.074219 518.542969 206.632812 521.191406 206.632812 C 523.84375 206.632812 526.191406 206.046875 527.863281 204.875 C 529.539062 203.703125 530.375 201.777344 530.375 199.128906 C 530.375 197.453125 530.015625 196.085938 529.316406 195.027344 C 528.617188 193.964844 527.667969 193.15625 526.496094 192.628906 C 525.324219 192.097656 524.011719 191.847656 522.535156 191.847656 L 514.996094 191.847656 L 514.996094 183.839844 L 521.5 183.839844 C 522.925781 183.839844 524.179688 183.585938 525.351562 183.058594 C 526.523438 182.527344 527.417969 181.746094 528.089844 180.714844 C 528.757812 179.679688 529.121094 178.371094 529.121094 176.808594 C 529.121094 175.382812 528.757812 174.210938 528.058594 173.234375 C 527.363281 172.257812 526.414062 171.535156 525.183594 171.03125 C 523.957031 170.527344 522.617188 170.277344 521.109375 170.277344 C 518.597656 170.277344 516.644531 170.863281 515.21875 172.089844 C 513.824219 173.292969 513.097656 174.964844 513.097656 177.113281 L 502.519531 177.113281 L 502.519531 175.382812 C 502.519531 172.566406 503.328125 170.054688 504.917969 167.851562 C 506.511719 165.644531 508.742188 163.945312 511.589844 162.6875 C 514.4375 161.433594 517.703125 160.820312 521.359375 160.820312 L 523.175781 160.820312 C 526.71875 160.820312 529.875 161.433594 532.609375 162.6875 C 535.34375 163.945312 537.496094 165.675781 539.03125 167.851562 C 540.566406 170.054688 541.347656 172.539062 541.347656 175.300781 C 541.347656 177.167969 541.011719 178.871094 540.3125 180.40625 C 539.644531 181.914062 538.695312 183.222656 537.523438 184.3125 C 536.351562 185.402344 535.011719 186.320312 533.476562 187.046875 L 533.476562 187.605469 C 536.15625 188.441406 538.359375 189.863281 540.089844 191.875 C 541.847656 193.882812 542.714844 196.617188 542.714844 200.078125 C 542.714844 203.144531 541.847656 205.910156 540.089844 208.335938 C 538.332031 210.761719 535.902344 212.660156 532.804688 214.054688 C 529.707031 215.449219 526.105469 216.148438 522.03125 216.148438 L 519.601562 216.148438 Z M 519.628906 216.09375 " fill-opacity="1" fill-rule="nonzero"/></g><path fill="#040435" d="M 551.757812 215.3125 L 551.757812 161.570312 L 588.6875 161.570312 L 587.347656 171.617188 L 564.683594 171.617188 L 564.683594 183.921875 L 585.226562 183.921875 L 585.226562 193.714844 L 564.683594 193.714844 L 564.683594 215.339844 L 551.757812 215.339844 Z M 551.757812 215.3125 " fill-opacity="1" fill-rule="nonzero"/><path fill="#040435" d="M 594.355469 215.3125 L 594.355469 175.273438 L 603.59375 175.273438 L 605.019531 181.074219 C 605.183594 180.851562 605.464844 180.40625 605.910156 179.707031 C 606.359375 179.011719 607.027344 178.257812 607.921875 177.449219 C 608.8125 176.640625 609.902344 175.941406 611.214844 175.382812 C 612.527344 174.796875 614.0625 174.519531 615.847656 174.519531 C 618.5 174.519531 620.675781 175.019531 622.351562 175.996094 C 624.027344 177.003906 625.253906 178.425781 626.066406 180.265625 C 626.875 182.136719 627.292969 184.339844 627.292969 186.878906 C 627.292969 187.464844 627.292969 188.136719 627.210938 188.886719 C 627.152344 189.640625 627.097656 190.339844 627.042969 190.980469 L 616.851562 190.980469 L 616.851562 189.25 C 616.851562 188.359375 616.6875 187.464844 616.351562 186.574219 C 616.015625 185.679688 615.484375 184.953125 614.730469 184.425781 C 614.007812 183.867188 613 183.613281 611.746094 183.613281 C 610.796875 183.613281 609.988281 183.808594 609.316406 184.171875 C 608.648438 184.535156 608.089844 185.011719 607.667969 185.625 C 607.25 186.238281 606.945312 186.878906 606.777344 187.578125 C 606.582031 188.273438 606.496094 189 606.496094 189.726562 L 606.496094 215.339844 L 594.355469 215.339844 Z M 594.355469 215.3125 " fill-opacity="1" fill-rule="nonzero"/><g clip-path="url(#c288ead242)"><path fill="#040435" d="M 644.125 216.09375 C 641.976562 216.09375 639.9375 215.730469 638.011719 215.003906 C 636.085938 214.277344 634.496094 213.078125 633.265625 211.433594 C 632.039062 209.785156 631.425781 207.554688 631.425781 204.738281 C 631.425781 201.917969 632.039062 199.601562 633.265625 197.789062 C 634.496094 195.976562 636.28125 194.582031 638.597656 193.605469 C 640.914062 192.597656 643.707031 191.929688 647 191.539062 C 650.265625 191.148438 653.921875 190.953125 657.941406 190.953125 L 657.941406 187.746094 C 657.941406 185.652344 657.355469 184.171875 656.210938 183.308594 C 655.066406 182.441406 653.449219 182.023438 651.355469 182.023438 C 649.484375 182.023438 647.867188 182.441406 646.582031 183.28125 C 645.269531 184.117188 644.628906 185.34375 644.628906 186.964844 L 644.628906 187.519531 L 632.792969 187.519531 C 632.734375 187.355469 632.707031 187.160156 632.707031 186.933594 L 632.707031 186.183594 C 632.707031 183.949219 633.433594 181.914062 634.914062 180.15625 C 636.394531 178.398438 638.457031 177.003906 641.136719 175.996094 C 643.816406 174.992188 646.972656 174.519531 650.574219 174.519531 L 652.527344 174.519531 C 658.390625 174.519531 662.742188 175.664062 665.617188 177.921875 C 668.492188 180.183594 669.917969 183.222656 669.917969 186.964844 L 669.917969 205.460938 C 669.917969 206.464844 670.167969 207.164062 670.671875 207.609375 C 671.171875 208.058594 671.703125 208.28125 672.289062 208.28125 C 672.820312 208.28125 673.324219 208.195312 673.851562 208 C 674.382812 207.804688 674.886719 207.609375 675.332031 207.414062 L 675.332031 214.390625 C 674.664062 214.921875 673.742188 215.339844 672.597656 215.644531 C 671.453125 215.953125 669.972656 216.121094 668.214844 216.121094 C 666.234375 216.121094 664.53125 215.8125 663.164062 215.226562 C 661.792969 214.640625 660.707031 213.832031 659.980469 212.828125 C 659.253906 211.824219 658.78125 210.679688 658.554688 209.367188 C 657.105469 211.238281 655.179688 212.855469 652.835938 214.140625 C 650.488281 215.449219 647.585938 216.09375 644.125 216.09375 Z M 650.238281 208.28125 C 651.550781 208.28125 652.777344 207.972656 653.949219 207.386719 C 655.121094 206.800781 656.070312 205.910156 656.824219 204.707031 C 657.550781 203.535156 657.914062 202.085938 657.914062 200.355469 L 657.914062 197.148438 C 654.871094 197.148438 652.359375 197.34375 650.320312 197.761719 C 648.285156 198.179688 646.75 198.820312 645.742188 199.714844 C 644.738281 200.605469 644.207031 201.835938 644.207031 203.398438 C 644.207031 205.238281 644.765625 206.496094 645.882812 207.191406 C 647 207.890625 648.453125 208.253906 650.238281 208.253906 Z M 650.238281 208.28125 " fill-opacity="1" fill-rule="nonzero"/></g><path fill="#040435" d="M 681.667969 215.3125 L 681.667969 175.273438 L 690.851562 175.273438 L 692.277344 181.074219 C 693.894531 178.84375 695.765625 177.167969 697.914062 176.109375 C 700.0625 175.050781 702.578125 174.492188 705.453125 174.492188 C 708.160156 174.492188 710.53125 174.992188 712.542969 176.027344 C 714.550781 177.058594 716.113281 178.480469 717.203125 180.378906 C 718.292969 182.246094 718.851562 184.507812 718.851562 187.128906 L 718.851562 215.339844 L 706.539062 215.339844 L 706.539062 189.949219 C 706.539062 187.800781 705.980469 186.183594 704.894531 185.09375 C 703.804688 184.003906 702.351562 183.449219 700.59375 183.449219 C 699.394531 183.449219 698.304688 183.753906 697.300781 184.394531 C 696.296875 185.039062 695.515625 185.847656 694.898438 186.851562 C 694.3125 187.855469 694.007812 189.027344 694.007812 190.339844 L 694.007812 215.339844 L 681.695312 215.339844 Z M 681.667969 215.3125 " fill-opacity="1" fill-rule="nonzero"/><g clip-path="url(#e62306bc16)"><path fill="#040435" d="M 745.339844 216.09375 C 741.933594 216.09375 738.835938 215.253906 736.015625 213.554688 C 733.199219 211.851562 730.9375 209.535156 729.261719 206.578125 C 727.585938 203.621094 726.75 200.300781 726.75 196.589844 L 726.75 193.910156 C 726.75 191.09375 727.25 188.496094 728.230469 186.152344 C 729.207031 183.808594 730.601562 181.746094 732.332031 179.988281 C 734.0625 178.230469 736.101562 176.890625 738.363281 175.914062 C 740.621094 174.9375 743.078125 174.464844 745.703125 174.464844 L 747.433594 174.464844 C 751.144531 174.464844 754.328125 175.160156 756.953125 176.582031 C 759.605469 178.007812 761.613281 179.960938 763.039062 182.472656 C 764.433594 184.980469 765.160156 187.910156 765.160156 191.261719 L 754.496094 191.261719 C 754.496094 189.277344 754.214844 187.605469 753.628906 186.292969 C 753.042969 184.980469 752.234375 183.976562 751.203125 183.308594 C 750.140625 182.667969 748.855469 182.332031 747.292969 182.332031 C 745.199219 182.332031 743.441406 183.058594 741.992188 184.480469 C 740.539062 185.902344 739.839844 187.941406 739.839844 190.5625 L 739.839844 199.882812 C 739.839844 202.503906 740.511719 204.542969 741.851562 206.046875 C 743.191406 207.527344 745.0625 208.28125 747.460938 208.28125 C 749.191406 208.28125 750.617188 208 751.730469 207.414062 C 752.847656 206.828125 753.714844 205.910156 754.273438 204.597656 C 754.859375 203.285156 755.136719 201.527344 755.136719 199.351562 L 765.160156 199.351562 C 765.160156 202.894531 764.378906 205.9375 762.839844 208.449219 C 761.304688 210.957031 759.15625 212.855469 756.449219 214.167969 C 753.742188 215.480469 750.585938 216.121094 747.042969 216.121094 L 745.3125 216.121094 Z M 745.339844 216.09375 " fill-opacity="1" fill-rule="nonzero"/></g><g clip-path="url(#aa69db31bb)"><path fill="#040435" d="M 790.894531 216.09375 C 786.988281 216.09375 783.496094 215.3125 780.511719 213.777344 C 777.496094 212.242188 775.152344 209.980469 773.449219 207.023438 C 771.746094 204.066406 770.910156 200.496094 770.910156 196.339844 L 770.910156 194.21875 C 770.910156 189.976562 771.773438 186.40625 773.53125 183.449219 C 775.292969 180.488281 777.664062 178.257812 780.707031 176.75 C 783.722656 175.246094 787.210938 174.492188 791.144531 174.492188 L 792.625 174.492188 C 796.394531 174.492188 799.632812 175.214844 802.339844 176.695312 C 805.046875 178.144531 807.140625 180.210938 808.621094 182.863281 C 810.097656 185.511719 810.824219 188.554688 810.824219 191.984375 L 810.824219 196.925781 L 784 196.925781 C 784 199.128906 784.25 201.082031 784.753906 202.8125 C 785.257812 204.542969 786.066406 205.878906 787.183594 206.855469 C 788.300781 207.832031 789.777344 208.308594 791.621094 208.308594 C 793.238281 208.308594 794.609375 208 795.722656 207.359375 C 796.839844 206.746094 797.734375 205.824219 798.347656 204.652344 C 798.960938 203.480469 799.296875 202.058594 799.296875 200.382812 L 810.742188 200.382812 C 810.742188 203.425781 809.933594 206.105469 808.339844 208.503906 C 806.75 210.875 804.542969 212.746094 801.726562 214.113281 C 798.90625 215.480469 795.613281 216.148438 791.84375 216.148438 L 790.894531 216.148438 Z M 784 190.953125 L 798.65625 190.953125 C 798.65625 187.96875 798.011719 185.792969 796.699219 184.394531 C 795.390625 183 793.660156 182.332031 791.535156 182.332031 C 789.414062 182.332031 787.628906 183.058594 786.234375 184.535156 C 784.835938 185.988281 784.113281 188.136719 784 190.953125 Z M 784 190.953125 " fill-opacity="1" fill-rule="nonzero"/></g><g clip-path="url(#8af8188372)"><g clip-path="url(#12ee62838b)"><path fill="url(#e4500b3934)" d="M 314.296875 161.570312 L 314.296875 215.339844 L 390.5 215.339844 L 390.5 161.570312 Z M 314.296875 161.570312 " fill-rule="nonzero"/></g></g><g clip-path="url(#22cb9f3e6d)"><g clip-path="url(#d30abf7723)"><path fill="url(#355304b750)" d="M 379.8125 161.570312 L 379.8125 215.3125 L 406.355469 215.3125 L 406.355469 161.570312 Z M 379.8125 161.570312 " fill-rule="nonzero"/></g></g></svg>
